<svg width="32" height="32" viewBox="0 0 32 32" fill="none" xmlns="http://www.w3.org/2000/svg">
<path d="M8.00033 25.3333C8.00033 26.8 9.20033 28 10.667 28H21.3337C22.8003 28 24.0003 26.8 24.0003 25.3333V12C24.0003 10.5333 22.8003 9.33333 21.3337 9.33333H10.667C9.20033 9.33333 8.00033 10.5333 8.00033 12V25.3333ZM24.0003 5.33333H20.667L19.7203 4.38667C19.4803 4.14667 19.1337 4 18.787 4H13.2137C12.867 4 12.5203 4.14667 12.2803 4.38667L11.3337 5.33333H8.00033C7.26699 5.33333 6.66699 5.93333 6.66699 6.66667C6.66699 7.4 7.26699 8 8.00033 8H24.0003C24.7337 8 25.3337 7.4 25.3337 6.66667C25.3337 5.93333 24.7337 5.33333 24.0003 5.33333Z" fill="white"/>
</svg>
