<svg width="36" height="32" viewBox="0 0 36 32" fill="none" xmlns="http://www.w3.org/2000/svg">
<g clip-path="url(#clip0_301_225)">
<path d="M25.1625 5.19998L30.8 10.8375C31.0375 11.075 31.0375 11.4625 30.8 11.7L17.15 25.35L11.35 25.9937C10.575 26.0812 9.91875 25.425 10.0063 24.65L10.65 18.85L24.3 5.19998C24.5375 4.96248 24.925 4.96248 25.1625 5.19998ZM35.2875 3.76873L32.2375 0.718726C31.2875 -0.231274 29.7437 -0.231274 28.7875 0.718726L26.575 2.93123C26.3375 3.16873 26.3375 3.55623 26.575 3.79373L32.2125 9.43122C32.45 9.66873 32.8375 9.66873 33.075 9.43122L35.2875 7.21873C36.2375 6.26248 36.2375 4.71873 35.2875 3.76873ZM24 21.6375V28H4V7.99998H18.3625C18.5625 7.99998 18.75 7.91873 18.8937 7.78123L21.3937 5.28123C21.8687 4.80623 21.5312 3.99998 20.8625 3.99998H3C1.34375 3.99998 0 5.34373 0 6.99998V29C0 30.6562 1.34375 32 3 32H25C26.6562 32 28 30.6562 28 29V19.1375C28 18.4687 27.1938 18.1375 26.7188 18.6062L24.2188 21.1062C24.0812 21.25 24 21.4375 24 21.6375Z" fill="white"/>
</g>
<defs>
<clipPath id="clip0_301_225">
<rect width="36" height="32" fill="white"/>
</clipPath>
</defs>
</svg>
