<svg width="42" height="42" viewBox="0 0 42 42" fill="none" xmlns="http://www.w3.org/2000/svg">
<g clip-path="url(#clip0_116_456)">
<path fill-rule="evenodd" clip-rule="evenodd" d="M13.8953 22.8552C13.4037 22.363 13.1276 21.6958 13.1276 21.0002C13.1276 20.3045 13.4037 19.6373 13.8953 19.1452L23.7933 9.24365C24.2858 8.75145 24.9536 8.47502 25.6498 8.47518C26.3461 8.47535 27.0137 8.75209 27.5059 9.24453C27.9981 9.73697 28.2746 10.4048 28.2744 11.101C28.2742 11.7973 27.9975 12.4649 27.5051 12.9572L19.4621 21.0002L27.5051 29.0432C27.9835 29.538 28.2484 30.201 28.2427 30.8892C28.2371 31.5775 27.9613 32.236 27.4748 32.723C26.9884 33.2099 26.3301 33.4863 25.6418 33.4926C24.9536 33.4989 24.2904 33.2346 23.7951 32.7567L13.8936 22.8569L13.8953 22.8552Z" fill="white"/>
</g>
<defs>
<clipPath id="clip0_116_456">
<rect width="42" height="42" fill="white" transform="matrix(-1 0 0 -1 42 42)"/>
</clipPath>
</defs>
</svg>
